<svg xmlns="http://www.w3.org/2000/svg" xmlns:xlink="http://www.w3.org/1999/xlink" xmlns:svgjs="http://svgjs.com/svgjs" id="SvgjsSvg1001" version="1.1" viewBox="0 110.41 288 67.19"><defs id="SvgjsDefs1002"/><g id="SvgjsG1008"><svg xmlns="http://www.w3.org/2000/svg" fill-rule="evenodd" clip-rule="evenodd" image-rendering="optimizeQuality" shape-rendering="geometricPrecision" text-rendering="geometricPrecision" viewBox="102.47 1941.44 4805.05 1120.95" width="288" height="288"><path fill="#003153" d="M4324.5 1941.5C4341.17 1941.33 4357.84 1941.5 4374.5 1942 4404.68 1943.45 4432.02 1952.78 4456.5 1970 4486.01 1997.54 4495.18 2030.71 4484 2069.5 4471.21 2093.45 4451.38 2102.61 4424.5 2097 4407.22 2092.06 4396.39 2080.89 4392 2063.5 4390.96 2053.84 4389.96 2044.17 4389 2034.5 4384.86 2012.73 4372.03 1999.23 4350.5 1994 4311.59 1985.96 4280.43 1997.8 4257 2029.5 4238.66 2057.49 4224.33 2087.49 4214 2119.5 4197.03 2169.39 4182.86 2220.06 4171.5 2271.5 4203.16 2270.81 4234.83 2270.14 4266.5 2269.5 4279.02 2269.25 4291.35 2270.09 4303.5 2272 4323.51 2272.83 4343.51 2272.67 4363.5 2271.5 4377.84 2227.33 4392.67 2183.33 4408 2139.5 4417.29 2131.4 4428.13 2126.56 4440.5 2125 4466.93 2119.88 4493.6 2118.22 4520.5 2120 4529.23 2120.61 4536.07 2124.45 4541 2131.5 4541.25 2133.43 4541.75 2135.27 4542.5 2137 4527.88 2181.86 4511.88 2226.19 4494.5 2270 4524.49 2269.39 4554.49 2269.06 4584.5 2269 4586.6 2271.04 4587.77 2273.54 4588 2276.5 4588.91 2286.94 4588.24 2297.27 4586 2307.5 4585.55 2309.52 4584.72 2311.35 4583.5 2313 4549.49 2313.19 4515.49 2313.36 4481.5 2313.5 4451.41 2404.92 4423.25 2496.92 4397 2589.5 4393.86 2601.65 4392.03 2613.98 4391.5 2626.5 4390.93 2636.49 4393.1 2645.82 4398 2654.5 4406.41 2662.11 4416.24 2664.61 4427.5 2662 4441.95 2658.61 4454.95 2652.28 4466.5 2643 4485.59 2625.58 4500.43 2605.08 4511 2581.5 4516.33 2569.01 4521.5 2556.51 4526.5 2544 4536.94 2543.09 4543.61 2547.76 4546.5 2558 4536.06 2617.58 4508.72 2667.58 4464.5 2708 4440.83 2728.84 4413.49 2742.84 4382.5 2750 4353.5 2756.05 4325.84 2752.38 4299.5 2739 4275.5 2724.2 4261.67 2702.7 4258 2674.5 4256.46 2656.51 4257.46 2638.51 4261 2620.5 4274.56 2560.5 4290.56 2501.17 4309 2442.5 4322.41 2399.45 4335.91 2356.45 4349.5 2313.5 4328.16 2313.67 4306.83 2313.5 4285.5 2313 4284.83 2312.33 4284.17 2311.67 4283.5 2311 4243.84 2310.11 4204.17 2309.61 4164.5 2309.5 4132.92 2438.9 4102.42 2568.56 4073 2698.5 4059.09 2759.56 4040.76 2819.23 4018 2877.5 4002.26 2917.68 3980.93 2954.34 3954 2987.5 3917.19 3028.82 3871.03 3052.66 3815.5 3059 3781.16 3063.51 3746.83 3063.51 3712.5 3059 3681.19 3055.46 3653.19 3044.13 3628.5 3025 3601.7 2999.26 3593.2 2968.42 3603 2932.5 3614.08 2909.13 3632.58 2898.96 3658.5 2902 3675.94 2904.77 3688.1 2914.27 3695 2930.5 3697.67 2942.5 3700.33 2954.5 3703 2966.5 3713.44 3000.92 3736.61 3016.09 3772.5 3012 3801.26 3008.9 3823.76 2995.4 3840 2971.5 3853.53 2950.6 3864.2 2928.26 3872 2904.5 3912.43 2787.78 3947.43 2669.45 3977 2549.5 3996.8 2470.97 4015.97 2392.3 4034.5 2313.5 4033.17 2313.17 4031.83 2312.83 4030.5 2312.5 4009.19 2314.04 3987.86 2314.54 3966.5 2314 3964.4 2311.96 3963.23 2309.46 3963 2306.5 3961.99 2297.04 3962.66 2287.7 3965 2278.5 3965.57 2276.51 3966.74 2275.01 3968.5 2274 3993.84 2273.61 4019.17 2273.11 4044.5 2272.5 4060.41 2204.03 4085.24 2139.03 4119 2077.5 4136.41 2046.21 4158.91 2019.04 4186.5 1996 4226.97 1964.01 4272.97 1945.84 4324.5 1941.5zM3357.5 1954.5C3408.92 1953.36 3457.59 1964.19 3503.5 1987 3509.42 1992.13 3516.09 1995.96 3523.5 1998.5 3531.69 1997.32 3538.52 1993.66 3544 1987.5 3548.27 1980.69 3551.77 1973.52 3554.5 1966 3564.26 1963.16 3573.43 1964.32 3582 1969.5 3583.42 1972.03 3583.75 1974.7 3583 1977.5 3561.45 2046.05 3544.45 2115.71 3532 2186.5 3529.92 2200.83 3527.92 2215.16 3526 2229.5 3522.92 2232.7 3519.08 2234.03 3514.5 2233.5 3507.54 2233.81 3501.37 2231.81 3496 2227.5 3495.4 2225.86 3494.9 2224.2 3494.5 2222.5 3498.82 2180.81 3496.66 2139.48 3488 2098.5 3468.28 2020.78 3418.78 1987.94 3339.5 2000 3310.43 2006.7 3284.1 2019.04 3260.5 2037 3231.92 2059.58 3206.76 2085.41 3185 2114.5 3114.14 2215.62 3069.81 2327.62 3052 2450.5 3046.45 2491.46 3046.12 2532.46 3051 2573.5 3067.93 2685.55 3130.76 2725.71 3239.5 2694 3279.55 2677.61 3308.05 2649.45 3325 2609.5 3339.2 2575.86 3344.86 2540.86 3342 2504.5 3335.42 2470.92 3315.25 2451.09 3281.5 2445 3274.54 2443.94 3267.54 2443.27 3260.5 2443 3259.07 2442.53 3257.9 2441.7 3257 2440.5 3253.47 2429.32 3255.63 2419.49 3263.5 2411 3289.13 2412.54 3314.8 2413.87 3340.5 2415 3363.67 2415.17 3386.83 2415.33 3410 2415.5 3472.52 2414.8 3535.02 2413.64 3597.5 2412 3599.77 2414.34 3600.94 2417.18 3601 2420.5 3601.88 2427.25 3601.54 2433.92 3600 2440.5 3541.19 2446.24 3503.85 2477.57 3488 2534.5 3478.18 2575.31 3476.35 2616.14 3482.5 2657 3479.61 2666.54 3473.11 2671.71 3463 2672.5 3450.95 2669.45 3438.78 2666.95 3426.5 2665 3418.04 2664.12 3409.71 2664.79 3401.5 2667 3376.94 2676.78 3353.27 2688.45 3330.5 2702 3281.38 2729.71 3228.71 2745.71 3172.5 2750 3122.81 2753.46 3074.81 2746.12 3028.5 2728 2964.33 2699.16 2920.16 2651.66 2896 2585.5 2876.64 2527.16 2870.97 2467.5 2879 2406.5 2900.07 2265.79 2964.57 2149.96 3072.5 2059 3155.87 1993.04 3250.87 1958.2 3357.5 1954.5z" opacity=".989" class="colorfefffe svgShape"/><path fill="#003153" d="M 3842.5,1957.5 C 3884.09,1956.97 3912.26,1975.97 3927,2014.5C 3936.4,2060.07 3919.9,2092.24 3877.5,2111C 3843.84,2121.34 3814.01,2114.84 3788,2091.5C 3768.53,2069.61 3762.19,2044.28 3769,2015.5C 3776.43,1991.07 3791.93,1973.9 3815.5,1964C 3824.38,1960.75 3833.38,1958.59 3842.5,1957.5 Z" opacity=".987" class="colorfefffe svgShape"/><path fill="#003153" d="M1397.5 1961.5C1407.17 1961.33 1416.84 1961.5 1426.5 1962 1433.97 1965.12 1436.47 1970.62 1434 1978.5 1369.07 2168.87 1309.41 2360.87 1255 2554.5 1247.35 2581.26 1241.85 2608.42 1238.5 2636 1238.33 2644.49 1239.83 2652.66 1243 2660.5 1252.1 2670.85 1262.93 2673.02 1275.5 2667 1292.84 2656.66 1307.34 2643.16 1319 2626.5 1335.35 2601.97 1349.52 2576.13 1361.5 2549 1369.17 2548.42 1375.34 2551.25 1380 2557.5 1381.25 2560.08 1381.58 2562.74 1381 2565.5 1364 2620.45 1334.16 2666.95 1291.5 2705 1266.53 2726.15 1237.87 2739.81 1205.5 2746 1179.61 2750.56 1155.61 2745.89 1133.5 2732 1117.99 2720.17 1108.16 2704.67 1104 2685.5 1102.49 2673.2 1102.16 2660.87 1103 2648.5 1110.02 2612.77 1118.69 2577.44 1129 2542.5 1167.13 2411.77 1205.46 2281.11 1244 2150.5 1256.45 2108.88 1266.61 2066.71 1274.5 2024 1272.65 2019.48 1269.31 2016.14 1264.5 2014 1250.63 2008.89 1236.3 2006.23 1221.5 2006 1217.23 2004.73 1214.73 2001.9 1214 1997.5 1213.33 1994.5 1213.33 1991.5 1214 1988.5 1215.11 1986.19 1216.94 1984.69 1219.5 1984 1278.72 1974.51 1338.05 1967.01 1397.5 1961.5zM441.5 1967.5C497.124 1963.32 548.79 1975.49 596.5 2004 611.269 2009.78 622.103 2005.61 629 1991.5 630.156 1987.88 631.156 1984.21 632 1980.5 641.092 1977.01 649.425 1978.34 657 1984.5 651.891 2036.82 646.557 2089.15 641 2141.5 638.714 2166.85 636.714 2192.18 635 2217.5 628.515 2223.11 621.015 2224.95 612.5 2223 607.611 2222.44 604.111 2219.94 602 2215.5 602.127 2176.18 596.127 2137.84 584 2100.5 556.333 2027.74 504.167 1998.91 427.5 2014 383.579 2027.26 359.412 2056.76 355 2102.5 352.203 2138.77 361.203 2171.77 382 2201.5 393.77 2217.17 406.603 2232.01 420.5 2246 445.87 2269.04 471.536 2291.71 497.5 2314 519.882 2334.37 540.049 2356.54 558 2380.5 604.363 2449.02 616.697 2523.35 595 2603.5 577.03 2656.46 543.53 2696.3 494.5 2723 440.4 2750.09 383.067 2762.09 322.5 2759 286.648 2757.76 251.981 2750.76 218.5 2738 197.904 2728.7 177.904 2718.37 158.5 2707 151.733 2705.47 146.566 2707.64 143 2713.5 138.945 2722.77 136.279 2732.43 135 2742.5 133.063 2746.39 129.897 2748.05 125.5 2747.5 117.303 2747.49 110.47 2744.49 105 2738.5 103.128 2735.79 102.295 2732.79 102.5 2729.5 107.32 2695.66 110.487 2661.66 112 2627.5 114.288 2583.86 115.621 2540.2 116 2496.5 117.245 2492.26 120.078 2489.76 124.5 2489 129.939 2487.8 135.439 2486.97 141 2486.5 145.261 2486.62 149.261 2487.62 153 2489.5 154.134 2527.71 161.468 2564.71 175 2600.5 208.928 2679.22 268.761 2717.05 354.5 2714 381.355 2712.28 405.355 2703.28 426.5 2687 449.398 2663.99 459.898 2636.15 458 2603.5 456.197 2573.91 446.53 2547.24 429 2523.5 414.639 2505.13 398.805 2487.97 381.5 2472 348.199 2444.23 316.366 2414.73 286 2383.5 218.508 2310.54 196.508 2225.54 220 2128.5 243.336 2059.16 289.169 2011.33 357.5 1985 384.877 1975.49 412.877 1969.66 441.5 1967.5zM2466.5 2119.5C2481.5 2119.33 2496.5 2119.5 2511.5 2120 2520.71 2120.51 2527.54 2124.68 2532 2132.5 2532.67 2135.17 2532.67 2137.83 2532 2140.5 2517.68 2184.13 2502.18 2227.3 2485.5 2270 2515.16 2269.41 2544.83 2269.07 2574.5 2269 2576.26 2270.01 2577.43 2271.51 2578 2273.5 2580.33 2286.99 2579.17 2300.16 2574.5 2313 2540.26 2313.19 2506.09 2313.35 2472 2313.5 2442.18 2404.62 2414.18 2496.29 2388 2588.5 2383.16 2605.2 2381.49 2622.2 2383 2639.5 2385.27 2655.11 2394.27 2662.77 2410 2662.5 2424.99 2661.84 2438.49 2657 2450.5 2648 2470.38 2632.73 2485.88 2613.9 2497 2591.5 2504.31 2576.56 2510.65 2561.23 2516 2545.5 2523.2 2542.07 2529.2 2543.73 2534 2550.5 2535.84 2553.04 2536.67 2555.87 2536.5 2559 2526.28 2617.45 2499.61 2666.79 2456.5 2707 2428.65 2731.42 2396.32 2746.42 2359.5 2752 2329.12 2755.53 2301.79 2748.2 2277.5 2730 2257.11 2710.68 2247.11 2686.85 2247.5 2658.5 2248.6 2638.58 2251.43 2618.92 2256 2599.5 2280.83 2503.51 2309 2408.51 2340.5 2314.5 2319.17 2313.67 2297.84 2313.17 2276.5 2313 2274.68 2311.2 2273.52 2309.03 2273 2306.5 2272.16 2297.78 2272.49 2289.11 2274 2280.5 2274.34 2276.99 2275.84 2274.16 2278.5 2272 2303.82 2272.32 2329.16 2272.49 2354.5 2272.5 2368.29 2228.29 2382.79 2184.29 2398 2140.5 2404 2134.41 2411.17 2130.25 2419.5 2128 2435.07 2123.85 2450.74 2121.02 2466.5 2119.5z" opacity=".989" class="colorfefffe svgShape"/><path fill="#003153" d="M987.5 2247.5C1005.98 2245.92 1023.98 2248.09 1041.5 2254 1070.96 2269.55 1085.29 2294.21 1084.5 2328 1084.2 2344.38 1080.36 2359.88 1073 2374.5 1059.12 2399.72 1040.28 2420.55 1016.5 2437 986.33 2457.59 953.997 2474.25 919.5 2487 887.735 2498.42 855.401 2507.92 822.5 2515.5 807.774 2553.52 801.608 2592.85 804 2633.5 809.558 2678.05 834.391 2695.88 878.5 2687 911.526 2677.31 939.36 2659.48 962 2633.5 978.27 2614.65 991.27 2593.65 1001 2570.5 1008.86 2564.81 1016.19 2565.48 1023 2572.5 1023.67 2575.83 1023.67 2579.17 1023 2582.5 1002.12 2637.44 968.289 2682.61 921.5 2718 865.961 2756.2 805.627 2766.2 740.5 2748 698.967 2731.45 674.8 2700.95 668 2656.5 661.549 2613.32 665.549 2570.66 680 2528.5 711.794 2436 766.628 2360.5 844.5 2302 877.183 2278.66 913.183 2262.33 952.5 2253 964.248 2250.74 975.914 2248.91 987.5 2247.5zM963.5 2289.5C980.35 2287.84 990.85 2295.17 995 2311.5 996.315 2332.24 991.648 2351.58 981 2369.5 962.634 2398.87 939.134 2423.37 910.5 2443 884.373 2461.56 856.706 2477.23 827.5 2490 844.488 2437.53 867.988 2388.36 898 2342.5 910.876 2323.96 926.71 2308.46 945.5 2296 951.435 2293.3 957.435 2291.14 963.5 2289.5zM1730.5 2247.5C1799.54 2244.04 1831.04 2276.71 1825 2345.5 1817.71 2374.58 1802.88 2399.08 1780.5 2419 1745.33 2449.1 1705.67 2471.76 1661.5 2487 1629.73 2498.42 1597.4 2507.92 1564.5 2515.5 1552.97 2546.8 1546.31 2579.13 1544.5 2612.5 1544.42 2629.04 1547.26 2645.04 1553 2660.5 1562.82 2680.09 1578.82 2689.75 1601 2689.5 1624.55 2687.76 1646.05 2680.26 1665.5 2667 1700.55 2642.28 1726.38 2610.11 1743 2570.5 1750.86 2564.81 1758.19 2565.48 1765 2572.5 1766.1 2578.85 1765.1 2584.85 1762 2590.5 1741.48 2641.01 1709.65 2682.84 1666.5 2716 1610.36 2755.8 1549.02 2766.47 1482.5 2748 1440.97 2731.45 1416.8 2700.95 1410 2656.5 1403.91 2616.93 1406.91 2577.59 1419 2538.5 1449.02 2443.22 1503.52 2365.39 1582.5 2305 1626.51 2272.16 1675.84 2253 1730.5 2247.5zM1705.5 2289.5C1722.42 2287.86 1732.92 2295.19 1737 2311.5 1738.46 2327.54 1735.79 2342.87 1729 2357.5 1717.97 2379.54 1703.47 2399.04 1685.5 2416 1650.64 2446.75 1611.98 2471.42 1569.5 2490 1586.5 2437.5 1610 2388.33 1640 2342.5 1652.88 2323.96 1668.71 2308.46 1687.5 2296 1693.5 2293.48 1699.5 2291.32 1705.5 2289.5z" opacity=".986" class="colorfefffe svgShape"/><path fill="#003153" d="M2147.5 2247.5C2166.06 2246.49 2184.39 2247.99 2202.5 2252 2241.95 2264.71 2260.79 2291.87 2259 2333.5 2257.08 2354.53 2247.58 2371.03 2230.5 2383 2212.74 2389.74 2195.4 2388.74 2178.5 2380 2169.06 2371.88 2162.9 2361.71 2160 2349.5 2157.51 2337.04 2154.51 2324.7 2151 2312.5 2145.08 2298.31 2134.91 2293.81 2120.5 2299 2109.99 2304.01 2100.83 2310.84 2093 2319.5 2068.16 2350.16 2048.16 2383.82 2033 2420.5 2006.5 2480.85 1990.16 2543.85 1984 2609.5 1982.21 2628.51 1983.88 2647.18 1989 2665.5 1998.23 2688.04 2015.07 2697.54 2039.5 2694 2054.16 2691.22 2067.82 2685.89 2080.5 2678 2114.02 2652.76 2137.18 2619.93 2150 2579.5 2159.05 2570.78 2166.39 2572.11 2172 2583.5 2172.56 2586.15 2173.06 2588.82 2173.5 2591.5 2161.09 2645.21 2133.42 2689.04 2090.5 2723 2035.53 2761.25 1976.53 2768.91 1913.5 2746 1871.67 2725.47 1847.5 2691.97 1841 2645.5 1835.75 2607.75 1839.08 2570.75 1851 2534.5 1878.6 2448.06 1926.1 2374.89 1993.5 2315 2026.53 2287.15 2063.86 2267.15 2105.5 2255 2119.49 2251.63 2133.49 2249.13 2147.5 2247.5zM3781.5 2247.5C3802.24 2245.48 3821.9 2248.98 3840.5 2258 3857.91 2270.65 3867.75 2287.81 3870 2309.5 3872.04 2327.72 3870.71 2345.72 3866 2363.5 3854.97 2403.6 3840.97 2442.6 3824 2480.5 3803.36 2526.09 3783.69 2572.09 3765 2618.5 3759.55 2631.69 3756.05 2645.35 3754.5 2659.5 3754.73 2672.56 3761.23 2680.22 3774 2682.5 3780.85 2681.49 3787.35 2679.33 3793.5 2676 3816.8 2659.53 3835.63 2639.03 3850 2614.5 3856.5 2603.5 3863 2592.5 3869.5 2581.5 3877.24 2578.69 3883.74 2580.69 3889 2587.5 3889.99 2589.78 3890.82 2592.11 3891.5 2594.5 3876.6 2627.99 3857.43 2658.66 3834 2686.5 3810.08 2713.76 3781.25 2733.93 3747.5 2747 3722.13 2755.59 3696.8 2755.59 3671.5 2747 3645.32 2734.81 3630.82 2714.31 3628 2685.5 3627.3 2663.02 3630.3 2641.02 3637 2619.5 3641.93 2602.71 3647.26 2586.04 3653 2569.5 3670.78 2521.28 3689.11 2473.28 3708 2425.5 3717.28 2401.67 3724.94 2377.34 3731 2352.5 3734.96 2323.14 3723.13 2313.97 3695.5 2325 3669.08 2343.2 3650.08 2367.2 3638.5 2397 3632.11 2397.57 3626.11 2396.24 3620.5 2393 3619.4 2390.6 3619.23 2388.1 3620 2385.5 3639.78 2320.39 3681.94 2276.89 3746.5 2255 3758.15 2251.77 3769.82 2249.27 3781.5 2247.5z" opacity=".987" class="colorfefffe svgShape"/><path fill="#003153" d="M 4777.5,2247.5 C 4800.87,2245.95 4823.87,2248.12 4846.5,2254C 4890.92,2269.61 4911.08,2301.11 4907,2348.5C 4903.55,2365.29 4893.71,2376.45 4877.5,2382C 4851.41,2387.54 4834.25,2377.71 4826,2352.5C 4824.3,2339.3 4821.63,2326.3 4818,2313.5C 4806.9,2291.26 4790.07,2285.76 4767.5,2297C 4757.48,2303.85 4751.65,2313.35 4750,2325.5C 4747.46,2345.5 4750.13,2364.84 4758,2383.5C 4762.39,2394.62 4767.06,2405.62 4772,2416.5C 4787.82,2447.8 4802.82,2479.47 4817,2511.5C 4827.67,2536.17 4834.67,2561.83 4838,2588.5C 4842.7,2651.94 4818.2,2700.11 4764.5,2733C 4725.67,2752.03 4684.67,2759.37 4641.5,2755C 4613.36,2752.91 4588.02,2743.58 4565.5,2727C 4538.08,2702.84 4529.92,2673.34 4541,2638.5C 4551.42,2619.9 4567.26,2612.4 4588.5,2616C 4603.17,2620.67 4612.34,2630.5 4616,2645.5C 4617.39,2659.54 4620.39,2673.2 4625,2686.5C 4639.16,2714.01 4661,2722.51 4690.5,2712C 4702.59,2706.57 4710.42,2697.41 4714,2684.5C 4718.18,2666.8 4718.18,2649.14 4714,2631.5C 4710.8,2618.58 4706.8,2605.91 4702,2593.5C 4689.67,2565.5 4677.33,2537.5 4665,2509.5C 4650.8,2477.24 4642.14,2443.58 4639,2408.5C 4635.86,2370.38 4645.2,2335.71 4667,2304.5C 4687.24,2279.29 4713.08,2262.45 4744.5,2254C 4755.52,2251.23 4766.52,2249.06 4777.5,2247.5 Z" opacity=".988" class="colorfefffe svgShape"/></svg></g></svg>